<?xml version="1.0" encoding="UTF-8" standalone="no"?>
<!DOCTYPE svg PUBLIC "-//W3C//DTD SVG 1.1//EN" "http://www.w3.org/Graphics/SVG/1.1/DTD/svg11.dtd">
<svg width="100%" height="100%" viewBox="0 0 4000 989" version="1.1" xmlns="http://www.w3.org/2000/svg" xmlns:xlink="http://www.w3.org/1999/xlink" xml:space="preserve" xmlns:serif="http://www.serif.com/" style="fill-rule:evenodd;clip-rule:evenodd;stroke-linejoin:round;stroke-miterlimit:2;">
    <g transform="matrix(1,0,0,1,-4050,0)">
        <g id="Artboard2" transform="matrix(1,0,0,0.329667,0,0)">
            <rect x="4050" y="0" width="4000" height="3000" style="fill:none;"/>
            <g transform="matrix(0,-29.145777,10.233597,0,-15023.44672,40159.74954)">
                <path d="M1327.156,1878.5C1331.381,1878.5 1334.812,1881.931 1334.812,1886.156C1334.812,1890.381 1331.381,1893.812 1327.156,1893.812C1322.931,1893.812 1319.5,1890.381 1319.5,1886.156C1319.5,1881.931 1322.931,1878.5 1327.156,1878.5ZM1348.54,1952.002C1348.691,1952.402 1348.835,1954.066 1348.827,1954.091C1348.814,1954.136 1348.765,1954.565 1348.745,1954.728C1348.691,1955.179 1348.531,1955.559 1348.182,1955.756C1348.088,1955.809 1347.835,1955.865 1347.481,1955.838C1346.627,1955.773 1344.234,1955.244 1344.008,1955.134C1343.279,1954.78 1341.786,1953.921 1333.628,1951.742C1325.887,1949.675 1325.738,1950.327 1317.987,1952.438C1312.804,1953.85 1309.197,1955.49 1306.533,1955.898C1306.26,1955.94 1305.347,1955.601 1305.272,1955.517C1305.157,1955.39 1305.334,1953.447 1305.49,1952.831C1305.715,1951.94 1305.749,1951.381 1306.755,1950.328C1306.987,1950.086 1307.479,1949.782 1308.076,1949.487C1309.335,1948.865 1311.073,1948.23 1311.332,1948.136C1317.407,1945.919 1317.439,1946.132 1317.958,1945.926C1318.36,1945.767 1318.71,1945.657 1318.983,1945.316C1319.279,1944.949 1319.481,1944.344 1319.632,1943.255C1319.857,1941.64 1319.934,1939.05 1319.861,1934.793C1319.732,1927.258 1320.094,1900.82 1319.676,1898.691C1319.382,1897.193 1318.187,1895.831 1317.051,1894.181C1315.214,1891.511 1313.475,1888.17 1315.162,1882.702C1319.272,1869.387 1338.104,1871.787 1340.027,1884.616C1340.719,1889.235 1338.97,1892.101 1337.324,1894.513C1336.314,1895.994 1335.33,1897.28 1335.118,1898.749C1334.931,1900.047 1335.012,1941.057 1335.069,1942.65C1335.107,1943.734 1335.241,1944.428 1335.638,1944.941C1336.042,1945.462 1336.7,1945.785 1337.701,1946.179C1339.185,1946.762 1341.373,1947.444 1344.57,1948.823C1346.26,1949.552 1347.162,1950.126 1347.701,1950.663C1348.143,1951.105 1348.362,1951.528 1348.54,1952.002Z" style="fill:rgb(11,26,74);"/>
            </g>
            <g transform="matrix(50.017306,0,0,27.920706,-58575.514605,-40571.297675)">
                <g transform="matrix(1,0,0,2.616194,0,-2434.117936)">
                    <path d="M1278.039,1507.081L1278.039,1505.081L1274.439,1505.081L1274.439,1490.631L1275.839,1490.631L1275.839,1503.631L1278.039,1503.631L1278.039,1488.631L1272.189,1488.631L1272.189,1523.531L1278.039,1523.531L1278.039,1508.531L1275.839,1508.531L1275.839,1521.531L1274.439,1521.531L1274.439,1507.081L1278.039,1507.081Z" style="fill:rgb(11,26,74);fill-rule:nonzero;"/>
                </g>
                <path d="M1285.339,1504.281C1285.339,1504.947 1285.349,1505.547 1284.916,1506.081C1285.349,1506.614 1285.339,1507.231 1285.339,1507.931L1285.339,1523.531L1283.139,1523.531L1283.139,1507.781C1283.139,1507.581 1283.072,1507.414 1282.939,1507.281C1282.805,1507.147 1282.639,1507.081 1282.439,1507.081C1282.239,1507.081 1282.064,1507.147 1281.914,1507.281C1281.764,1507.414 1281.689,1507.581 1281.689,1507.781L1281.739,1523.531L1279.489,1523.531L1279.489,1507.931C1279.489,1507.231 1279.478,1506.614 1279.911,1506.081C1279.478,1505.547 1279.489,1504.947 1279.489,1504.281L1279.489,1488.631L1281.739,1488.631L1281.689,1504.331C1281.689,1504.531 1281.764,1504.706 1281.914,1504.856C1282.064,1505.006 1282.239,1505.081 1282.439,1505.081C1282.639,1505.081 1282.805,1505.006 1282.939,1504.856C1283.072,1504.706 1283.139,1504.531 1283.139,1504.331L1283.139,1488.631L1285.339,1488.631L1285.339,1504.281Z" style="fill:rgb(11,26,74);fill-rule:nonzero;"/>
                <path d="M1292.639,1520.781C1292.639,1521.581 1292.355,1522.272 1291.789,1522.856C1291.222,1523.439 1290.539,1523.731 1289.739,1523.731C1288.939,1523.731 1288.247,1523.439 1287.664,1522.856C1287.08,1522.272 1286.789,1521.581 1286.789,1520.781L1286.789,1491.331C1286.789,1490.531 1287.08,1489.847 1287.664,1489.281C1288.247,1488.714 1288.939,1488.431 1289.739,1488.431C1290.539,1488.431 1291.222,1488.714 1291.789,1489.281C1292.355,1489.847 1292.639,1490.531 1292.639,1491.331L1292.639,1505.331L1290.439,1505.331L1290.439,1491.131C1290.439,1490.964 1290.372,1490.806 1290.239,1490.656C1290.105,1490.506 1289.939,1490.431 1289.739,1490.431C1289.539,1490.431 1289.372,1490.506 1289.239,1490.656C1289.105,1490.806 1289.039,1490.964 1289.039,1491.131L1289.039,1520.981C1289.039,1521.181 1289.105,1521.347 1289.239,1521.481C1289.372,1521.614 1289.539,1521.681 1289.739,1521.681C1289.939,1521.681 1290.105,1521.614 1290.239,1521.481C1290.372,1521.347 1290.439,1521.181 1290.439,1520.981L1290.439,1506.781L1292.639,1506.781L1292.639,1520.781Z" style="fill:rgb(11,26,74);fill-rule:nonzero;"/>
                <path d="M1297.039,1488.431C1297.839,1488.431 1298.522,1488.714 1299.089,1489.281C1299.655,1489.847 1299.939,1490.531 1299.939,1491.331L1299.939,1523.531L1297.739,1523.531L1297.739,1507.081L1296.339,1507.081L1296.339,1523.531L1294.089,1523.531L1294.089,1491.331C1294.089,1490.531 1294.38,1489.847 1294.964,1489.281C1295.547,1488.714 1296.239,1488.431 1297.039,1488.431ZM1297.739,1491.181C1297.739,1490.981 1297.672,1490.806 1297.539,1490.656C1297.405,1490.506 1297.239,1490.431 1297.039,1490.431C1296.839,1490.431 1296.672,1490.506 1296.539,1490.656C1296.405,1490.806 1296.339,1490.981 1296.339,1491.181L1296.339,1505.081L1297.739,1505.081L1297.739,1491.181Z" style="fill:rgb(11,26,74);fill-rule:nonzero;"/>
                <g transform="matrix(1,0,0,1,-0.219924,0)">
                    <path d="M1305.439,1521.531L1303.639,1521.531L1303.639,1488.631L1301.389,1488.631L1301.389,1523.531L1305.439,1523.531L1305.439,1521.531Z" style="fill:rgb(11,26,74);fill-rule:nonzero;"/>
                </g>
                <g transform="matrix(1,0,0,1,0.739744,0)">
                    <rect x="1305.039" y="1488.631" width="2.25" height="34.9" style="fill:rgb(11,26,74);fill-rule:nonzero;"/>
                </g>
                <g transform="matrix(1,0,0,1,0.599792,0)">
                    <path d="M1314.539,1520.581C1314.539,1521.414 1314.255,1522.114 1313.689,1522.681C1313.122,1523.247 1312.439,1523.531 1311.639,1523.531L1308.689,1523.531L1308.689,1488.631L1311.639,1488.631C1312.439,1488.631 1313.122,1488.914 1313.689,1489.481C1314.255,1490.047 1314.539,1490.731 1314.539,1491.531L1314.539,1504.181C1314.539,1504.847 1314.528,1505.464 1314.128,1506.031C1314.528,1506.597 1314.539,1507.197 1314.539,1507.831L1314.539,1520.581ZM1312.339,1491.331C1312.339,1491.131 1312.272,1490.964 1312.139,1490.831C1312.005,1490.697 1311.839,1490.631 1311.639,1490.631L1310.939,1490.631L1310.939,1505.081L1311.639,1505.081C1311.839,1505.081 1312.005,1505.006 1312.139,1504.856C1312.272,1504.706 1312.339,1504.531 1312.339,1504.331L1312.339,1491.331ZM1312.339,1507.831C1312.339,1507.631 1312.272,1507.456 1312.139,1507.306C1312.005,1507.156 1311.839,1507.081 1311.639,1507.081L1310.939,1507.081L1310.939,1521.531L1311.639,1521.531C1311.839,1521.531 1312.005,1521.456 1312.139,1521.306C1312.272,1521.156 1312.339,1520.981 1312.339,1520.781L1312.339,1507.831Z" style="fill:rgb(11,26,74);fill-rule:nonzero;"/>
                </g>
                <g transform="matrix(1,0,0,1,0.599792,0)">
                    <path d="M1321.839,1520.781C1321.839,1521.614 1321.555,1522.314 1320.989,1522.881C1320.422,1523.447 1319.739,1523.731 1318.939,1523.731C1318.139,1523.731 1317.447,1523.447 1316.864,1522.881C1316.28,1522.314 1315.989,1521.614 1315.989,1520.781L1315.989,1488.631L1318.239,1488.631L1318.239,1520.981C1318.239,1521.181 1318.305,1521.347 1318.439,1521.481C1318.572,1521.614 1318.739,1521.681 1318.939,1521.681C1319.139,1521.681 1319.305,1521.614 1319.439,1521.481C1319.572,1521.347 1319.639,1521.181 1319.639,1520.981L1319.639,1488.631L1321.839,1488.631L1321.839,1520.781Z" style="fill:rgb(11,26,74);fill-rule:nonzero;"/>
                </g>
                <g transform="matrix(1,0,0,1,0.599792,0)">
                    <path d="M1329.139,1504.181C1329.139,1504.847 1328.939,1505.464 1328.539,1506.031C1328.939,1506.597 1329.139,1507.197 1329.139,1507.831L1329.139,1523.531L1326.939,1523.531L1326.939,1507.781C1326.939,1507.581 1326.872,1507.414 1326.739,1507.281C1326.605,1507.147 1326.439,1507.081 1326.239,1507.081L1325.539,1507.081L1325.539,1523.531L1323.289,1523.531L1323.289,1488.631L1326.239,1488.631C1327.039,1488.631 1327.722,1488.914 1328.289,1489.481C1328.855,1490.047 1329.139,1490.731 1329.139,1491.531L1329.139,1504.181ZM1326.939,1491.331C1326.939,1491.131 1326.872,1490.964 1326.739,1490.831C1326.605,1490.697 1326.439,1490.631 1326.239,1490.631L1325.539,1490.631L1325.539,1505.081L1326.239,1505.081C1326.439,1505.081 1326.605,1505.006 1326.739,1504.856C1326.872,1504.706 1326.939,1504.531 1326.939,1504.331L1326.939,1491.331Z" style="fill:rgb(11,26,74);fill-rule:nonzero;"/>
                </g>
            </g>
        </g>
    </g>
</svg>
